<svg xmlns="http://www.w3.org/2000/svg" width="1200" height="209" viewBox="0 0 1200 209">
  <g fill="none" fill-rule="evenodd">
    <rect width="1200" height="52" fill="#FFFFFF"/>
    <path fill="#222222" d="M0,41.4869032 L1200,41.4869032 L1200,208.486903 L0,208.486903 L0,41.4869032 Z M88.3421053,38 L93.8421053,41.4869032 L82.8421053,41.4869032 L88.3421053,38 Z M149.184211,38 L154.684211,41.4869032 L143.684211,41.4869032 L149.184211,38 Z M210.026316,38 L215.526316,41.4869032 L204.526316,41.4869032 L210.026316,38 Z M270.868421,38 L276.368421,41.4869032 L265.368421,41.4869032 L270.868421,38 Z M331.710526,38 L337.210526,41.4869032 L326.210526,41.4869032 L331.710526,38 Z M392.552632,38 L398.052632,41.4869032 L387.052632,41.4869032 L392.552632,38 Z M453.394737,38 L458.894737,41.4869032 L447.894737,41.4869032 L453.394737,38 Z M514.236842,38 L519.736842,41.4869032 L508.736842,41.4869032 L514.236842,38 Z M575.078947,38 L580.578947,41.4869032 L569.578947,41.4869032 L575.078947,38 Z M635.921053,38 L641.421053,41.4869032 L630.421053,41.4869032 L635.921053,38 Z M696.763158,38 L702.263158,41.4869032 L691.263158,41.4869032 L696.763158,38 Z M757.605263,38 L763.105263,41.4869032 L752.105263,41.4869032 L757.605263,38 Z M818.447368,38 L823.947368,41.4869032 L812.947368,41.4869032 L818.447368,38 Z M879.289474,38 L884.789474,41.4869032 L873.789474,41.4869032 L879.289474,38 Z M940.131579,38 L945.631579,41.4869032 L934.631579,41.4869032 L940.131579,38 Z M1000.97368,38 L1006.47368,41.4869032 L995.473684,41.4869032 L1000.97368,38 Z M1061.81579,38 L1067.31579,41.4869032 L1056.31579,41.4869032 L1061.81579,38 Z M1122.65789,38 L1128.15789,41.4869032 L1117.15789,41.4869032 L1122.65789,38 Z M1183.5,38.4869032 L1189,41.4869032 L1178,41.4869032 L1183.5,38.4869032 Z M27.5,38.4869032 L33,41.4869032 L22,41.4869032 L27.5,38.4869032 Z"/>
  </g>
</svg>
