<svg xmlns="http://www.w3.org/2000/svg" width="1200" height="170" viewBox="0 0 1200 170">
  <polygon fill="#222222" fill-rule="evenodd" points="31.167 2.487 84.419 2.487 88.342 0 92.265 2.487 145.262 2.487 149.184 0 153.107 2.487 206.104 2.487 210.026 0 213.949 2.487 266.946 2.487 270.868 0 274.791 2.487 327.788 2.487 331.711 0 335.633 2.487 388.63 2.487 392.553 0 396.475 2.487 449.472 2.487 453.395 0 457.317 2.487 510.314 2.487 514.237 0 518.16 2.487 571.156 2.487 575.079 0 579.002 2.487 631.998 2.487 635.921 0 639.844 2.487 692.84 2.487 696.763 0 700.686 2.487 753.683 2.487 757.605 0 761.528 2.487 814.525 2.487 818.447 0 822.37 2.487 875.367 2.487 879.289 0 883.212 2.487 936.209 2.487 940.132 0 944.054 2.487 997.051 2.487 1000.974 0 1004.896 2.487 1057.893 2.487 1061.816 0 1065.738 2.487 1118.735 2.487 1122.658 0 1126.581 2.487 1179.833 2.487 1183.5 .487 1187.167 2.487 1200 2.487 1200 169.487 0 169.487 0 2.487 23.833 2.487 27.5 .487"/>
</svg>
